<svg xmlns="http://www.w3.org/2000/svg" viewBox="0 0 96 96" role="img" aria-labelledby="title desc">
  <title id="title">VisionPoint CPA monogram</title>
  <desc id="desc">A circular VP monogram with a small star accent.</desc>
  <circle cx="48" cy="48" r="42" fill="#fbfaf7"/>
  <circle cx="48" cy="48" r="37" fill="none" stroke="#2f5f6b" stroke-width="5"/>
  <path d="M21 28h8l13 36 13-36h8L45.6 72h-7.2L21 28Z" fill="#161b1f"/>
  <path d="M55 28h15.2c9.4 0 15.8 5.9 15.8 14.4 0 8.7-6.4 14.7-15.8 14.7h-7.4V72H55V28Zm14.6 22.2c5.2 0 8.2-3 8.2-7.7 0-4.6-3-7.5-8.2-7.5h-6.8v15.2h6.8Z" fill="#2f5f6b"/>
  <path d="M70 15.5l2.7 7.1 7.3 2.6-7.3 2.6-2.7 7.1-2.7-7.1-7.3-2.6 7.3-2.6 2.7-7.1Z" fill="#bd8a43"/>
</svg>
